<?xml version="1.0" standalone="no"?>
<!DOCTYPE svg PUBLIC "-//W3C//DTD SVG 20010904//EN"
 "http://www.w3.org/TR/2001/REC-SVG-20010904/DTD/svg10.dtd">
<svg version="1.0" xmlns="http://www.w3.org/2000/svg"
 width="1024.000000pt" height="1024.000000pt" viewBox="0 0 1024.000000 1024.000000"
 preserveAspectRatio="xMidYMid meet">

<g transform="translate(0.000000,1024.000000) scale(0.100000,-0.100000)"
fill="#EAB308" stroke="none">
<path d="M0 5120 l0 -5120 5120 0 5120 0 0 5120 0 5120 -5120 0 -5120 0 0
-5120z m4940 1966 c0 -18 -15 -36 -31 -36 -18 0 -26 20 -12 33 7 8 43 10 43 3z
m-63 -42 c-3 -3 -12 -4 -19 -1 -8 3 -5 6 6 6 11 1 17 -2 13 -5z m-77 -14 c-34
-11 -60 -11 -35 0 11 5 29 8 40 8 16 0 15 -2 -5 -8z m-103 -26 c-3 -3 -12 -4
-19 -1 -8 3 -5 6 6 6 11 1 17 -2 13 -5z m763 -12 c0 -5 -11 -19 -24 -31 -30
-28 -45 -10 -16 19 21 21 40 26 40 12z m-920 -37 c-52 -19 -140 -57 -195 -85
-55 -28 -91 -43 -80 -34 48 37 316 153 355 153 8 0 -28 -15 -80 -34z m665 19
c-138 -6 -322 -26 -420 -45 -124 -25 -306 -85 -323 -107 -12 -16 -14 -16 -28
2 -10 14 -14 16 -14 5 0 -8 -26 -27 -58 -44 -31 -16 -96 -56 -144 -87 -47 -32
-89 -58 -92 -58 -25 0 -245 -244 -315 -349 -19 -29 -37 -48 -39 -42 -2 6 -12
11 -23 11 -25 0 -24 12 3 36 12 10 18 13 14 7 -4 -7 -3 -20 2 -29 7 -13 17 -4
53 47 63 90 63 90 42 82 -10 -3 -35 -24 -56 -47 l-38 -41 31 44 c21 30 27 48
20 55 -29 29 14 81 46 55 12 -10 21 -6 49 21 19 19 35 29 35 24 0 -6 -13 -23
-30 -39 -16 -16 -30 -33 -30 -37 0 -5 42 35 94 89 51 54 93 101 92 105 -2 9
57 54 67 50 5 -1 22 7 38 19 16 11 37 22 45 23 9 1 30 14 47 27 18 14 55 38
82 54 28 16 58 35 67 43 10 8 24 12 32 9 8 -3 45 7 83 22 168 68 349 99 573
98 91 0 134 -2 95 -3z m270 -23 c3 -6 -4 -15 -15 -21 -17 -9 -20 -8 -20 10 0
20 24 28 35 11z m-380 -62 c-249 -9 -398 -32 -544 -84 -51 -17 -51 -18 -51 -7
0 15 147 56 300 83 84 15 292 25 395 19 63 -3 43 -6 -100 -11z m850 -40 c8
-13 6 -15 -22 -23 -17 -5 -23 -3 -23 7 0 14 13 24 32 26 4 1 10 -4 13 -10z
m-1710 -37 c-6 -5 -54 -40 -108 -77 -86 -60 -97 -72 -92 -92 4 -18 1 -23 -13
-23 -28 0 -34 11 -14 27 15 13 15 13 -6 8 -20 -6 -23 -4 -20 12 2 12 18 29
18 15 1 68 30 124 68 88 60 127 82 100 59z m1005 -57 c-26 -26 -41 -35 -64
-33 l-31 1 31 4 c18 2 44 17 60 34 15 16 30 29 33 29 3 0 -10 -16 -29 -35z
m-790 18 c0 -5 -34 -25 -74 -46 -237 -122 -469 -347 -621 -601 -38 -64 -72
-116 -75 -116 -4 0 -7 -6 -8 -12 0 -7 -19 -56 -41 -109 -22 -52 -52 -133 -66
-180 -14 -46 -23 -66 -20 -44 21 145 123 373 247 550 147 212 334 387 545 511
85 51 113 62 113 47z m1678 -32 c-15 -24 -28 -27 -28 -6 0 13 31 38 38 30 2
-2 -3 -12 -10 -24z m-324 -27 c9 -8 16 -19 16 -24 0 -10 -29 -40 -39 -40 -27
0 -43 63 -18 73 20 9 25 8 41 -9z m-1160 -53 c21 -11 45 -17 54 -14 9 4 3 -12
-18 -43 -79 -116 -235 -330 -306 -421 -75 -96 -76 -98 -50 -101 25 -3 26 -5
26 -71 0 -60 -2 -69 -20 -74 -11 -3 -23 -1 -26 4 -3 5 4 9 15 9 19 0 21 6 21
55 l0 55 -39 0 c-43 0 -58 -13 -62 -50 -4 -48 1 -59 29 -63 19 -3 16 -4 -10
-4 -35 1 -38 4 -38 29 0 15 -2 28 -5 28 -3 0 -61 -38 -128 -83 -186 -127 -297
-197 -297 -188 0 5 15 23 33 41 17 18 26 30 19 25 -19 -10 -14 -2 145 265 114
191 141 229 176 251 116 73 322 202 325 204 1 1 7 28 12 60 10 61 22 82 55 95
31 13 48 12 89 -9z m514 -6 c-3 -3 -70 -8 -149 -10 -79 -2 -162 -5 -184 -6
-70 -3 -92 4 -35 11 67 8 375 12 368 5z m915 -11 c9 -10 -4 -34 -19 -34 -8 0
-14 6 -14 13 0 22 19 35 33 21z m-3533 -19 c0 -11 12 -15 50 -15 38 0 50 4 50
15 0 8 8 15 18 15 13 0 14 -2 3 -9 -7 -5 -10 -14 -7 -20 5 -8 -19 -11 -83 -11
l-90 0 -4 -97 -3 -98 -2 103 -2 102 26 0 c19 0 25 4 20 15 -3 9 0 15 9 15 8 0
15 -7 15 -15z m176 -116 l0 -94 -3 93 c-3 84 -6 92 -23 92 -11 0 -20 4 -20 10
0 6 9 6 23 1 21 -8 22 -14 23 -102z m1544 70 c0 -5 5 -7 10 -4 6 4 10 -5 10
-19 0 -31 -15 -34 -30 -7 -13 25 -13 41 0 41 6 0 10 -5 10 -11z m-1578 -28
c-13 -8 -182 -3 -191 5 -2 2 43 4 100 4 61 0 98 -4 91 -9z m-99 -37 c-7 -3 -9
-13 -6 -22 4 -14 3 -14 -5 -2 -12 16 -7 30 11 29 9 0 9 -2 0 -5z m-66 -76 c-3
-8 -6 -5 -6 6 -1 11 2 17 5 13 3 -3 4 -12 1 -19z m78 2 c7 0 16 6 18 13 4 9 6
9 6 -1 1 -7 -6 -15 -14 -18 -22 -9 -48 4 -39 18 6 9 9 9 12 0 2 -7 10 -12 17
-12z m1475 -55 c17 -9 30 -22 30 -30 0 -11 -7 -10 -35 6 -60 36 -55 55 5 24z
m1125 -85 l25 -50 -53 0 -54 0 25 50 c13 28 26 50 28 50 2 0 15 -22 29 -50z
m-1215 26 c0 -2 -8 -10 -17 -17 -16 -13 -17 -12 -4 4 13 16 21 21 21 13z m955
-57 c10 -15 -1 -23 -20 -15 -9 3 -13 10 -10 16 8 13 22 13 30 -1z m-1215 -33
c0 -2 -8 -10 -17 -17 -16 -13 -17 -12 -4 4 13 16 21 21 21 13z m1270 -21 c13
-14 21 -25 18 -25 -2 0 -15 11 -28 25 -13 14 -21 25 -18 25 2 0 15 -11 28 -25z
m535 15 c4 -6 1 -9 -7 -8 -8 2 -12 -4 -10 -17 3 -16 1 -17 -8 -8 -14 13 -7 43
9 43 5 0 13 -5 16 -10z m-1472 -7 c3 -5 -7 -17 -22 -27 l-26 -20 19 22 c19 22
19 22 -1 22 -11 0 -28 -10 -37 -22 -9 -13 -14 -16 -10 -8 14 30 27 40 50 40
12 0 25 -3 27 -7z m-367 -41 c0 -10 -6 -19 -13 -19 -8 0 -9 6 -2 19 5 10 11
18 12 18 2 0 3 -8 3 -18z m54 -2 c-6 -11 -13 -20 -16 -20 -2 0 0 9 6 20 6 11
13 20 16 20 2 0 0 -9 -6 -20z m1740 -3 c0 -1 -35 -36 -77 -77 l-77 -75 70 77
c59 65 84 88 84 75z m197 -3 c-3 -3 -12 -4 -19 -1 -8 3 -5 6 6 6 11 1 17 -2
13 -5z m78 -15 c11 -16 1 -19 -13 -3 -7 8 -8 14 -3 14 5 0 13 -5 16 -11z
m-1027 -28 c-18 -29 7 -55 44 -47 18 3 27 2 23 -4 -15 -24 -85 1 -85 30 0 17
12 40 21 40 5 0 4 -9 -3 -19z m74 0 c14 -16 14 -20 2 -25 -9 -3 -14 1 -14 13
0 11 -6 22 -12 24 -7 3 -8 6 -3 6 6 1 18 -8 27 -18z m855 -23 c-3 -8 -6 -5 -6
6 -1 11 2 17 5 13 3 -3 4 -12 1 -19z m-50 -10 c-3 -8 -6 -5 -6 6 -1 11 2 17 5
13 3 -3 4 -12 1 -19z m1032 -14 c-17 -20 -39 -17 -39 5 0 23 20 32 38 18 9 -7
9 -13 1 -23z m-1589 -61 c0 -8 -9 0 -50 45 l-45 47 48 -45 c26 -24 47 -45 47
-47z m1360 52 c0 -13 -3 -26 -7 -28 -5 -3 -8 10 -8 28 0 18 3 31 8 28 4 -2 7
-15 7 -28z m-980 -50 c-24 -25 -46 -45 -49 -45 -3 0 15 20 39 45 24 25 46 45
49 45 3 0 -15 -20 -39 -45z m220 2 c10 -4 7 -6 -7 -6 -13 -1 -23 1 -23 3 0 2
-3 13 -6 23 -6 16 -5 17 7 2 8 -9 21 -19 29 -22z m-739 6 c13 -16 12 -17 -3
-4 -10 7 -18 15 -18 17 0 8 8 3 21 -13z m844 -2 c-3 -6 -14 -10 -23 -10 -15 1
-15 2 1 6 9 2 17 9 17 15 0 6 3 9 6 5 3 -3 3 -10 -1 -16z m-1995 -2 c0 -5 -4
-7 -10 -4 -5 3 -10 -2 -10 -11 0 -13 -3 -15 -11 -7 -6 6 -8 16 -5 22 9 14 36
14 36 0z m548 -21 c3 -13 -3 -18 -22 -18 -20 0 -26 5 -26 21 0 15 5 20 22 17
13 -2 24 -11 26 -20z m1222 19 c0 -2 -15 -16 -32 -33 l-33 -29 29 33 c28 30
36 37 36 29z m-760 -27 c0 -15 -7 -20 -25 -20 -28 0 -25 26 3 33 10 3 18 5 20
6 1 0 2 -8 2 -19z m927 14 c-3 -3 -12 -4 -19 -1 -8 3 -5 6 6 6 11 1 17 -2 13
-5z m-742 -24 c10 -11 16 -20 13 -20 -3 0 -13 9 -23 20 -10 11 -16 20 -13 20
3 0 13 -9 23 -20z m-118 -6 c-3 -3 -12 -4 -19 -1 -8 3 -5 6 6 6 11 1 17 -2 13
-5z m-367 -19 c0 -8 -4 -15 -9 -15 -13 0 -22 16 -14 24 11 11 23 6 23 -9z
m1160 -20 c0 -8 -7 -15 -15 -15 -8 0 -15 7 -15 15 0 8 7 15 15 15 8 0 15 -7
15 -15z m235 6 c7 -12 -12 -24 -25 -16 -11 7 -4 25 10 25 5 0 11 -4 15 -9z
m211 -3 c4 -7 4 -10 -1 -6 -4 4 -14 3 -22 -3 -13 -11 -19 2 -6 14 10 11 21 8
29 -5z m-1205 -35 l24 -28 -30 25 c-16 14 -32 26 -34 28 -2 1 0 2 6 2 5 0 20
-12 34 -27z m-154 11 c-3 -3 -12 -4 -19 -1 -8 3 -5 6 6 6 11 1 17 -2 13 -5z
m224 -11 c13 -16 12 -17 -3 -4 -10 7 -18 15 -18 17 0 8 8 3 21 -13z m1754 -43
c0 -22 -39 -19 -43 3 -3 15 1 18 20 15 12 -2 23 -10 23 -18z m-1738 -22 c-3
-7 -5 -2 -5 12 0 14 2 19 5 13 2 -7 2 -19 0 -25z m560 -70 c-2 -18 -4 -4 -4
32 0 36 2 50 4 33 2 -18 2 -48 0 -65z m173 71 c-16 -4 -19 -7 -7 -8 12 -1 17
-9 16 -28 0 -17 -3 -22 -6 -13 -4 8 -12 21 -20 28 -18 18 1 44 25 34 14 -5 12
-7 -8 -13z m-3040 8 c0 -2 -10 -12 -22 -23 l-23 -19 19 23 c18 21 26 27 26 19z
m2737 -34 c-3 -10 -5 -4 -5 12 0 17 2 24 5 18 2 -7 2 -21 0 -30z m-1840 11 c5
-15 -20 -24 -37 -14 -7 4 -9 13 -5 19 8 14 37 11 42 -5z m183 -49 c-29 -30
-56 -53 -58 -50 -4 4 99 104 108 105 2 0 -20 -25 -50 -55z m1146 44 c10 -17
-13 -36 -27 -22 -12 12 -4 33 11 33 5 0 12 -5 16 -11z m-546 -35 c0 -8 -4 -14
-9 -14 -11 0 -22 26 -14 34 9 9 23 -3 23 -20z m997 4 c-3 -8 -6 -5 -6 6 -1 11
2 17 5 13 3 -3 4 -12 1 -19z m-2752 -27 c-8 -14 -32 -14 -40 -1 -3 5 0 7 8 4
8 -3 18 0 22 6 4 6 9 9 12 6 3 -2 2 -9 -2 -15z m3085 -51 l0 -70 40 20 c21 11
42 20 45 20 3 0 5 -25 5 -56 0 -43 3 -55 14 -51 7 3 35 9 61 13 l48 7 -6 -297
c-3 -164 -7 -299 -9 -300 -1 -2 -30 -6 -63 -10 l-60 -6 37 16 c21 9 38 25 42
37 10 38 6 340 -5 387 -6 25 -12 51 -13 57 -1 7 -12 25 -24 40 l-22 27 0 -231
0 -231 -44 -11 c-60 -15 -68 -13 -26 5 19 8 38 20 42 27 11 17 10 246 -2 347
-7 62 -15 89 -30 104 l-20 20 0 -210 0 -210 -67 -28 c-119 -48 -285 -154 -374
-238 l-27 -25 5 55 c6 59 -16 491 -25 507 -12 19 -20 -47 -21 -170 -1 -69 -4
-131 -6 -138 -2 -7 -6 -24 -9 -39 -4 -16 -11 -28 -17 -28 -6 0 -7 5 -4 10 9
15 -4 12 -20 -4 -12 -12 -11 -16 5 -31 22 -20 28 -7 8 14 -11 10 -10 11 5 6 9
-4 17 -16 17 -26 0 -22 -4 -23 -33 -8 -22 12 -22 12 -3 -9 10 -12 22 -19 26
-17 4 3 8 -17 7 -45 l0 -49 -54 50 c-30 27 -85 67 -123 89 -69 42 -230 114
-237 107 -7 -7 71 -78 115 -104 24 -14 42 -27 40 -28 -2 -2 -47 12 -102 31
-112 39 -135 43 -88 14 22 -14 32 -26 28 -36 -3 -8 -2 -13 3 -10 5 3 12 -1 15
-9 3 -9 25 -25 48 -36 26 -11 33 -18 18 -15 -14 3 -89 17 -167 32 l-143 27 0
248 0 249 -30 0 -30 0 0 -285 c0 -252 2 -285 16 -293 14 -8 12 -10 -10 -14
l-26 -5 0 303 0 304 40 0 40 0 0 40 0 41 60 -7 60 -7 0 53 c0 50 1 52 23 46
12 -4 34 -9 50 -12 l27 -6 0 57 c0 42 3 56 13 52 57 -22 173 -77 220 -105 32
-19 60 -32 61 -30 2 1 11 20 21 40 30 65 115 104 181 81 46 -16 100 -66 108
-99 8 -31 15 -30 78 8 74 44 230 117 251 118 15 0 17 -10 17 -70z m338 12
c-21 -4 -31 -29 -13 -36 7 -2 16 2 19 10 6 16 26 19 26 5 0 -5 -7 -17 -16 -26
-14 -13 -19 -14 -25 -3 -5 7 -9 9 -9 3 0 -5 -5 -2 -11 8 -8 14 -7 23 6 37 10
11 23 16 29 12 7 -4 5 -8 -6 -10z m-3437 -20 c-30 -2 -58 0 -62 5 -4 4 20 6
54 3 l62 -5 -54 -3z m1099 5 c0 -2 -10 -12 -22 -23 l-23 -19 19 23 c18 21 26
27 26 19z m678 -20 c2 -10 -3 -17 -12 -17 -18 0 -29 16 -21 31 9 14 29 6 33
-14z m-728 -21 c0 -3 -4 -8 -10 -11 -5 -3 -10 -1 -10 4 0 6 5 11 10 11 6 0 10
-2 10 -4z m-1011 -72 c-24 -24 -46 -44 -49 -44 -4 0 -12 12 -19 28 -11 27 -11
27 6 6 l18 -21 40 46 c22 26 42 43 44 38 2 -5 -16 -29 -40 -53z m1591 11 c0
-8 -4 -15 -10 -15 -5 0 -10 7 -10 15 0 8 5 15 10 15 6 0 10 -7 10 -15z m2046
-62 c-10 -10 -19 5 -10 18 6 11 8 11 12 0 2 -7 1 -15 -2 -18z m-2776 -27 c0
-8 -5 -18 -10 -21 -17 -11 -40 3 -34 20 8 19 44 20 44 1z m2480 -6 c0 -5 -10
-10 -22 -9 -22 0 -22 1 -3 9 11 5 21 9 23 9 1 1 2 -3 2 -9z m-1569 -73 c-5
-12 -8 -156 -7 -319 0 -164 -2 -298 -6 -298 -4 0 -9 127 -10 282 -2 214 -6
282 -15 286 -10 3 -13 -16 -13 -75 0 -43 -4 -73 -8 -67 -4 7 -6 44 -4 83 3 62
6 71 23 71 14 0 19 7 19 30 0 20 5 30 15 30 11 0 12 -5 6 -23z m2389 -52 c0
-21 -5 -25 -29 -25 -26 0 -41 14 -41 41 0 5 16 9 35 9 31 0 35 -3 35 -25z
m-557 -30 c-3 -9 -8 -14 -10 -11 -3 3 -2 9 2 15 9 16 15 13 8 -4z m-2247 -16
c-17 -14 -26 -31 -27 -52 -2 -32 -2 -32 -6 -3 -4 28 27 76 50 76 5 0 -2 -9
-17 -21z m95 -6 c13 -16 12 -17 -3 -4 -10 7 -18 15 -18 17 0 8 8 3 21 -13z
m2204 7 c3 -5 -3 -10 -14 -10 -12 0 -21 5 -21 10 0 6 6 10 14 10 8 0 18 -4 21
-10z m595 -25 c-7 -8 -16 -15 -21 -15 -5 0 -9 7 -9 15 0 9 9 15 21 15 18 0 19
-2 9 -15z m-2827 -9 c3 -8 -1 -17 -9 -20 -24 -9 -27 -7 -14 9 10 12 10 15 -4
15 -9 0 -16 -4 -16 -10 0 -5 -4 -10 -10 -10 -5 0 -7 7 -4 15 8 19 50 20 57 1z
m-33 -47 c0 -14 -17 -10 -23 5 -4 10 -1 13 9 9 7 -3 14 -9 14 -14z m-39 -26
c13 -16 12 -17 -3 -4 -10 7 -18 15 -18 17 0 8 8 3 21 -13z m-428 -34 c23 -37
-25 -68 -52 -35 -9 11 -10 20 -1 36 13 24 38 23 53 -1z m507 17 c0 -2 -7 -7
-16 -10 -8 -3 -12 -2 -9 4 6 10 25 14 25 6z m287 -108 c-2 -13 -4 -5 -4 17 -1
22 1 32 4 23 2 -10 2 -28 0 -40z m2022 -44 c-14 -18 -24 -11 -15 11 3 9 11 13
16 10 8 -5 7 -11 -1 -21z m-3810 13 c-2 -1 -13 -9 -24 -17 -19 -14 -19 -14 -6
3 7 9 18 17 24 17 6 0 8 -1 6 -3z m1788 -89 c-2 -18 -4 -4 -4 32 0 36 2 50 4
33 2 -18 2 -48 0 -65z m-1830 5 c-3 -10 -5 -2 -5 17 0 19 2 27 5 18 2 -10 2
-26 0 -35z m3083 37 c-8 -5 -19 -10 -25 -10 -5 0 -3 5 5 10 8 5 20 10 25 10 6
0 3 -5 -5 -10z m1327 -42 c-3 -8 -6 -5 -6 6 -1 11 2 17 5 13 3 -3 4 -12 1 -19z
m-2687 -14 c0 -17 -26 -19 -36 -3 -7 12 15 31 28 23 4 -3 8 -12 8 -20z m-1640
-59 c13 -14 21 -25 18 -25 -2 0 -15 11 -28 25 -13 14 -21 25 -18 25 2 0 15
-11 28 -25z m4058 -33 c-2 -8 -9 -17 -16 -20 -8 -2 -10 2 -6 13 4 9 -2 25 -12
37 l-19 21 28 -18 c15 -10 27 -25 25 -33z m-312 -53 c8 -14 -21 -43 -35 -35
-6 4 -11 16 -11 27 0 21 34 27 46 8z m388 -100 c-8 -14 -34 -10 -34 5 0 9 7
12 20 9 11 -3 17 -9 14 -14z m-2950 2 c8 -12 -21 -34 -34 -26 -17 11 -11 35 9
35 11 0 22 -4 25 -9z m556 -51 c0 -5 -4 -10 -10 -10 -5 0 -10 5 -10 10 0 6 5
10 10 10 6 0 10 -4 10 -10z m245 -110 c3 -6 -1 -7 -9 -4 -11 4 -16 0 -16 -12
0 -9 -3 -15 -6 -11 -9 8 3 37 15 37 5 0 13 -4 16 -10z m-915 -41 c-6 -10 -14
-21 -20 -24 -14 -9 -61 6 -57 19 6 17 46 34 68 29 14 -4 16 -9 9 -24z m3465
-69 c-4 -23 -9 -39 -11 -37 -3 2 -2 23 2 46 4 23 9 40 11 37 3 -3 2 -23 -2
-46z m-2635 -24 c0 -7 -9 -16 -20 -19 -19 -5 -28 12 -13 26 11 12 33 7 33 -7z
m-1722 -163 c-21 -2 -57 -2 -80 0 -24 2 -7 4 37 4 44 0 63 -2 43 -4z m1162
-43 c-11 -20 -50 -46 -50 -33 0 10 42 53 52 53 5 0 4 -9 -2 -20z m2680 10 c0
-5 -4 -10 -10 -10 -5 0 -10 5 -10 10 0 6 5 10 10 10 6 0 10 -4 10 -10z m-4103
-122 c-2 -18 -4 -4 -4 32 0 36 2 50 4 33 2 -18 2 -48 0 -65z m206 85 c-29 -2
-77 -2 -105 0 -29 2 -6 3 52 3 58 0 81 -1 53 -3z m4174 1 c-3 -3 -12 -4 -19
-1 -8 3 -5 6 6 6 11 1 17 -2 13 -5z m-50 -10 c-3 -3 -12 -4 -19 -1 -8 3 -5 6
6 6 11 1 17 -2 13 -5z m-50 -10 c-3 -3 -12 -4 -19 -1 -8 3 -5 6 6 6 11 1 17
-2 13 -5z m-2668 -38 c-2 -2 -20 -11 -39 -20 l-35 -17 25 20 c14 11 31 21 39
21 8 0 12 -2 10 -4z m1241 -13 c0 -14 -2 -15 -9 -4 -7 11 -9 11 -14 0 -4 -10
-6 -9 -6 4 -1 9 6 17 14 17 8 0 15 -8 15 -17z m1100 14 c0 -2 -10 -12 -21 -23
-22 -19 -22 -19 -10 4 10 18 31 31 31 19z m-3842 -14 c-10 -2 -26 -2 -35 0
-10 3 -2 5 17 5 19 0 27 -2 18 -5z m2544 -13 c-18 -11 -37 -30 -42 -43 -7 -17
-9 -18 -9 -4 -1 23 43 67 66 67 12 0 8 -6 -15 -20z m-2356 -45 c-13 -9 -43
-15 -81 -15 -53 0 -65 -4 -95 -30 -49 -41 -58 -37 -11 5 35 32 43 35 102 35
35 0 71 5 79 10 23 15 27 11 6 -5z m-226 -14 c0 -9 -59 -1 -64 8 -3 4 11 5 30
3 19 -2 34 -7 34 -11z m1326 -7 c-3 -9 -6 -18 -6 -20 0 -2 -7 -4 -15 -4 -18 0
-19 12 -3 28 17 17 31 15 24 -4z m374 -40 c0 -8 -4 -14 -10 -14 -5 0 -10 9
-10 21 0 11 5 17 10 14 6 -3 10 -13 10 -21z m964 -14 c-21 -21 -78 -31 -81
-15 -2 6 11 10 27 10 16 0 37 7 47 16 25 22 31 13 7 -11z m1098 15 c0 -14 -29
-31 -38 -22 -9 8 16 39 28 35 5 -2 10 -8 10 -13z m-1895 -27 c-3 -8 -6 -5 -6
6 -1 11 2 17 5 13 3 -3 4 -12 1 -19z m738 -48 c-4 -6 -1 -17 5 -25 10 -13 8
-15 -16 -15 -56 -1 -170 -30 -232 -61 -84 -41 -186 -143 -236 -236 -22 -40
-41 -71 -44 -69 -7 7 46 117 73 152 25 33 32 50 17 40 -4 -2 -14 -1 -22 4 -11
7 -12 14 -4 27 15 24 29 26 47 9 13 -13 17 -13 32 4 56 62 197 129 308 145 30
5 47 12 47 21 0 8 7 14 16 14 8 0 12 -5 9 -10z m809 -5 c-4 -8 -11 -15 -16
-15 -6 0 -5 6 2 15 7 8 14 15 16 15 2 0 1 -7 -2 -15z m38 -7 c-7 -7 -12 -8
-12 -2 0 14 12 26 19 19 2 -3 -1 -11 -7 -17z m-832 -139 c0 -5 -4 -9 -10 -9
-5 0 -10 7 -10 16 0 8 5 12 10 9 6 -3 10 -10 10 -16z m-889 -92 c-16 -16 -26
0 -10 19 9 11 15 12 17 4 2 -6 -1 -17 -7 -23z m3514 3 c3 -5 0 -10 -8 -10 -8
0 -29 -16 -47 -37 -29 -33 -32 -41 -28 -88 7 -87 63 -143 148 -148 22 -1 40
-5 40 -8 0 -14 -77 -42 -115 -42 -170 0 -227 244 -75 321 48 24 75 28 85 12z
m-2355 -15 c0 -8 -4 -15 -9 -15 -13 0 -22 16 -14 24 11 11 23 6 23 -9z m-844
-36 c10 -17 -23 -46 -38 -31 -8 8 -8 15 2 27 15 18 26 19 36 4z m556 -99 c-3
-60 0 -110 4 -110 5 0 56 41 112 90 57 50 106 90 110 90 5 0 -183 -198 -202
-211 -4 -4 -3 -10 3 -13 16 -10 13 -56 -4 -62 -8 -4 -23 -3 -32 2 -15 6 -13 8
10 12 19 2 27 9 27 23 0 16 -6 20 -27 17 -23 -2 -29 -9 -31 -33 -3 -21 -24
-52 -70 -100 -37 -38 -84 -90 -105 -115 -21 -25 1 13 48 83 47 71 82 133 79
138 -3 5 -40 9 -82 10 -90 1 -74 13 31 24 38 4 74 13 81 20 7 7 18 60 25 116
13 103 18 129 23 129 2 0 2 -49 0 -110z m2705 53 c-9 -21 -9 -27 1 -31 23 -7
12 -22 -18 -22 -35 0 -40 19 -10 38 26 16 25 30 -2 35 -17 3 -14 5 9 6 32 1
32 0 20 -26z m93 -32 c-5 -11 -16 -23 -23 -28 -8 -5 -2 -10 18 -14 27 -6 26
-7 -12 -8 -46 -1 -55 11 -23 31 26 17 25 26 -2 31 -14 3 -8 5 15 6 34 1 37 -1
27 -18z m-1570 -100 c49 -19 50 -19 89 1 22 11 52 18 68 16 l28 -3 3 -107 3
-108 -28 1 c-24 2 -25 2 -5 6 21 4 22 9 22 99 0 109 -6 117 -74 93 -40 -14
-41 -15 -47 -69 l-6 -55 -1 48 c-2 44 -5 49 -34 61 -18 7 -45 16 -60 20 l-28
6 0 -99 0 -100 46 -13 c49 -14 60 -32 22 -35 -21 -2 -21 -1 2 6 22 7 20 9 -25
19 -31 6 -52 7 -56 1 -6 -11 -9 212 -2 224 7 11 29 8 83 -12z m-1645 -101 c3
-5 1 -10 -4 -10 -6 0 -11 5 -11 10 0 6 2 10 4 10 3 0 8 -4 11 -10z m860 0 c3
-5 -1 -10 -9 -10 -9 0 -16 5 -16 10 0 6 4 10 9 10 6 0 13 -4 16 -10z m912
-106 c-3 -3 -12 -4 -19 -1 -8 3 -5 6 6 6 11 1 17 -2 13 -5z m-9 -14 c20 5 46
10 57 9 11 0 -15 -10 -58 -21 -43 -11 -81 -18 -83 -15 -2 2 -2 11 2 20 5 13
10 14 25 6 13 -7 31 -7 57 1z m1075 3 c-7 -2 -21 -2 -30 0 -10 3 -4 5 12 5 17
0 24 -2 18 -5z m-1230 -10 c-7 -2 -19 -2 -25 0 -7 3 -2 5 12 5 14 0 19 -2 13
-5z m-739 -125 c-36 -70 -123 -159 -192 -196 -88 -47 -154 -62 -256 -60 l-91
1 95 7 c109 8 190 34 268 86 65 43 135 114 169 172 35 58 39 53 7 -10z m674
-35 c-10 -2 -28 -2 -40 0 -13 2 -5 4 17 4 22 1 32 -1 23 -4z m-1108 -142 c0
-6 -4 -13 -10 -16 -5 -3 -10 1 -10 9 0 9 5 16 10 16 6 0 10 -4 10 -9z"/>
<path d="M4563 6660 c-33 -13 -55 -53 -51 -94 l3 -35 70 45 c39 25 72 49 73
55 3 7 -58 41 -70 38 -2 0 -13 -4 -25 -9z"/>
<path d="M5148 6290 l-17 -30 35 0 35 0 -16 30 c-9 17 -17 30 -18 30 -1 0 -10
-14 -19 -30z"/>
<path d="M5103 5734 c-44 -22 -73 -71 -73 -123 0 -60 17 -88 72 -124 33 -21
39 -21 32 -3 -3 8 -1 17 5 21 7 3 11 -2 11 -14 0 -27 30 -28 37 -2 3 11 11 17
18 15 7 -3 15 2 18 10 4 9 14 16 22 16 9 0 14 4 11 8 -3 5 6 25 19 45 29 42
31 66 10 107 -29 57 -115 77 -182 44z m87 -129 c10 -3 24 -13 31 -21 10 -13 6
-12 -24 2 l-37 18 2 60 2 61 3 -57 c3 -45 8 -58 23 -63z m-110 -46 c0 -6 -4
-7 -10 -4 -5 3 -10 11 -10 16 0 6 5 7 10 4 6 -3 10 -11 10 -16z"/>
<path d="M7710 3678 c-65 -45 -88 -132 -54 -204 30 -64 131 -102 199 -75 17 7
14 10 -20 20 -45 12 -98 60 -114 104 -23 60 -5 142 36 166 16 9 16 10 2 11 -9
0 -31 -10 -49 -22z"/>
</g>
</svg>